<?xml version="1.0" encoding="utf-8"?>
<svg version="1.1" xmlns="http://www.w3.org/2000/svg" xmlns:xlink="http://www.w3.org/1999/xlink" viewBox="0 240 575 135" xml:space="preserve">
    <g transform="translate(55.53, 246.88) scale(0.063)">
        <path fill="#FF5F1F" d="M122.5,549.9l-32.6-77.1h1854.7l-70.9,122.8c-73.9,128-210.5,206.8-358.3,206.8h-1012C337.3,802.4,187.2,703,122.5,549.9z"/>
        <path fill="#FF5F1F" d="M1669.6,942.1H750.2c-116.6,0-224.3,62.2-282.5,163.1L89.9,1759.5h132.3c147.8,0,284.4-78.8,358.3-206.8l147.8-255.9c9-15.5,25.5-25.1,43.5-25.1h468.8c147.8,0,284.4-78.8,358.3-206.8L1669.6,942.1z"/>
    </g>

    <g transform="translate(183.64, 295.18)">
        <path fill="#FF5F1F" d="M29.62 9.21L11.36 9.21L11.36 13.84L28.67 13.84L28.67 19.52L11.36 19.52L11.36 30.16L4.17 30.16L4.17 3.53L29.62 3.53L29.62 9.21ZM42.96 30.16L35.76 30.16L35.76 3.53L42.96 3.53L42.96 30.16ZM78.52 30.16L51.29 30.16L51.29 3.53L78.25 3.53L78.25 9.21L58.68 9.21L58.68 13.61L77.25 13.61L77.25 19.29L58.68 19.29L58.68 24.48L78.52 24.48L78.52 30.16ZM112.10 30.16L85.46 30.16L85.46 3.53L92.66 3.53L92.66 24.33L112.10 24.33L112.10 30.16ZM150.48 16.83L150.48 16.83Q150.48 19.38 149.92 21.37Q149.35 23.36 148.34 24.83Q147.32 26.30 145.89 27.33Q144.47 28.36 142.73 28.98Q140.98 29.60 138.96 29.88Q136.95 30.16 134.76 30.16L134.76 30.16L117.86 30.16L117.86 3.53L134.72 3.53Q136.91 3.53 138.93 3.81Q140.94 4.09 142.70 4.71Q144.45 5.33 145.88 6.35Q147.32 7.37 148.34 8.85Q149.35 10.33 149.92 12.31Q150.48 14.29 150.48 16.83ZM143.23 16.83L143.23 16.83Q143.23 14.91 142.73 13.49Q142.24 12.08 141.15 11.16Q140.05 10.23 138.29 9.78Q136.52 9.32 133.98 9.32L133.98 9.32L125.05 9.32L125.05 24.37L133.98 24.37Q136.52 24.37 138.29 23.91Q140.05 23.45 141.15 22.51Q142.24 21.57 142.73 20.16Q143.23 18.74 143.23 16.83ZM174.71 3.53L182.71 3.53L189.52 22.02L196.88 3.53L204.35 3.53L193.65 30.16L185.66 30.16L178.70 12.25L171.76 30.16L163.78 30.16L153.06 3.53L160.54 3.53L167.75 21.63L174.71 3.53ZM232.05 30.16L229.55 25.12L214.70 25.12L212.20 30.16L204.17 30.16L218.11 3.53L226.13 3.53L240.07 30.16L232.05 30.16ZM222.16 10.12L217.28 19.93L227.01 19.93L222.16 10.12ZM274.71 3.53L261.14 30.16L252.77 30.16L239.30 3.53L247.32 3.53L257.01 23.57L266.69 3.53L274.71 3.53ZM306.31 30.16L279.07 30.16L279.07 3.53L306.04 3.53L306.04 9.21L286.46 9.21L286.46 13.61L305.03 13.61L305.03 19.29L286.46 19.29L286.46 24.48L306.31 24.48L306.31 30.16ZM337.79 4.87L337.79 11.03Q337.03 10.66 335.79 10.20Q334.55 9.73 332.98 9.31Q331.41 8.90 329.57 8.62Q327.73 8.34 325.79 8.34L325.79 8.34Q324.24 8.34 323.14 8.43Q322.05 8.53 321.30 8.68Q320.55 8.84 320.12 9.04Q319.68 9.25 319.45 9.46Q319.22 9.67 319.15 9.89Q319.08 10.10 319.08 10.27L319.08 10.27Q319.08 10.86 319.66 11.29Q320.24 11.73 321.25 12.07Q322.26 12.41 323.60 12.71Q324.94 13.01 326.44 13.33Q327.94 13.65 329.54 14.02Q331.14 14.40 332.64 14.91Q334.14 15.41 335.48 16.08Q336.82 16.75 337.83 17.64Q338.83 18.53 339.42 19.69Q340.00 20.86 340.00 22.35L340.00 22.35Q340.00 24.27 339.32 25.65Q338.64 27.02 337.51 27.97Q336.37 28.92 334.88 29.49Q333.39 30.06 331.75 30.37Q330.11 30.69 328.43 30.78Q326.76 30.88 325.25 30.88L325.25 30.88Q321.29 30.88 317.93 30.23Q314.56 29.58 311.99 28.61L311.99 28.61L311.99 22.25Q314.64 23.73 318.04 24.56Q321.45 25.39 325.32 25.39L325.32 25.39Q327.61 25.39 329.05 25.15Q330.50 24.91 331.31 24.53Q332.13 24.15 332.42 23.71Q332.71 23.26 332.71 22.85L332.71 22.85Q332.71 22.21 332.13 21.74Q331.55 21.26 330.54 20.91Q329.53 20.55 328.19 20.25Q326.85 19.95 325.35 19.65Q323.85 19.35 322.26 19.00Q320.67 18.65 319.17 18.17Q317.67 17.70 316.33 17.07Q314.99 16.44 313.98 15.58Q312.98 14.71 312.39 13.58Q311.81 12.44 311.81 10.95L311.81 10.95Q311.81 9.19 312.43 7.91Q313.05 6.63 314.11 5.73Q315.17 4.83 316.55 4.26Q317.94 3.70 319.47 3.39Q321.00 3.08 322.57 2.97Q324.14 2.85 325.56 2.85L325.56 2.85Q327.11 2.85 328.74 3.00Q330.38 3.16 331.97 3.44Q333.56 3.72 335.04 4.09Q336.53 4.46 337.79 4.87L337.79 4.87Z"/>
    </g>
</svg>
